  0
SECTION
  2
HEADER
  9
$ACADVER
  1
AC1009
  9
$DWGCODEPAGE
  3
ansi_1251
  9
$INSBASE
 10
0.0
 20
0.0
 30
0.0
  9
$EXTMIN
 10
-118.5685834706
 20
-195.0
 30
0.0
  9
$EXTMAX
 10
83.5685834706
 20
63.1825
 30
0.0
  9
$LIMMIN
 10
0.0
 20
0.0
  9
$LIMMAX
 10
12.0
 20
9.0
  9
$ORTHOMODE
 70
     0
  9
$REGENMODE
 70
     1
  9
$FILLMODE
 70
     1
  9
$QTEXTMODE
 70
     0
  9
$MIRRTEXT
 70
     1
  9
$DRAGMODE
 70
     2
  9
$LTSCALE
 40
1.0
  9
$OSMODE
 70
    37
  9
$ATTMODE
 70
     1
  9
$TEXTSIZE
 40
0.2
  9
$TRACEWID
 40
0.05
  9
$TEXTSTYLE
  7
STANDARD
  9
$CLAYER
  8
DEFAULT
  9
$CELTYPE
  6
BYLAYER
  9
$CECOLOR
 62
   256
  9
$DIMSCALE
 40
1.0
  9
$DIMASZ
 40
0.18
  9
$DIMEXO
 40
0.0625
  9
$DIMDLI
 40
0.38
  9
$DIMRND
 40
0.0
  9
$DIMDLE
 40
0.0
  9
$DIMEXE
 40
0.18
  9
$DIMTP
 40
0.0
  9
$DIMTM
 40
0.0
  9
$DIMTXT
 40
0.18
  9
$DIMCEN
 40
0.09
  9
$DIMTSZ
 40
0.0
  9
$DIMTOL
 70
     0
  9
$DIMLIM
 70
     0
  9
$DIMTIH
 70
     1
  9
$DIMTOH
 70
     1
  9
$DIMSE1
 70
     0
  9
$DIMSE2
 70
     0
  9
$DIMTAD
 70
     0
  9
$DIMZIN
 70
     0
  9
$DIMBLK
  1

  9
$DIMASO
 70
     1
  9
$DIMSHO
 70
     1
  9
$DIMPOST
  1

  9
$DIMAPOST
  1

  9
$DIMALT
 70
     0
  9
$DIMALTD
 70
     2
  9
$DIMALTF
 40
25.4
  9
$DIMLFAC
 40
1.0
  9
$DIMTOFL
 70
     0
  9
$DIMTVP
 40
0.0
  9
$DIMTIX
 70
     0
  9
$DIMSOXD
 70
     0
  9
$DIMSAH
 70
     0
  9
$DIMBLK1
  1

  9
$DIMBLK2
  1

  9
$DIMSTYLE
  2
STANDARD
  9
$DIMCLRD
 70
     0
  9
$DIMCLRE
 70
     0
  9
$DIMCLRT
 70
     0
  9
$DIMTFAC
 40
1.0
  9
$DIMGAP
 40
0.09
  9
$LUNITS
 70
     2
  9
$LUPREC
 70
     2
  9
$SKETCHINC
 40
0.1
  9
$FILLETRAD
 40
0.5
  9
$AUNITS
 70
     0
  9
$AUPREC
 70
     0
  9
$MENU
  1
.
  9
$ELEVATION
 40
0.0
  9
$PELEVATION
 40
0.0
  9
$THICKNESS
 40
0.0
  9
$LIMCHECK
 70
     0
  9
$CHAMFERA
 40
0.0
  9
$CHAMFERB
 40
0.0
  9
$SKPOLY
 70
     0
  9
$TDCREATE
 40
2459774.695129282
  9
$TDUPDATE
 40
2459774.695142789
  9
$TDINDWG
 40
0.0000000116
  9
$TDUSRTIMER
 40
0.0000000116
  9
$USRTIMER
 70
     1
  9
$ANGBASE
 50
0.0
  9
$ANGDIR
 70
     0
  9
$PDMODE
 70
     0
  9
$PDSIZE
 40
0.0
  9
$PLINEWID
 40
0.0
  9
$COORDS
 70
     1
  9
$SPLFRAME
 70
     0
  9
$SPLINETYPE
 70
     6
  9
$SPLINESEGS
 70
     8
  9
$ATTDIA
 70
     0
  9
$ATTREQ
 70
     1
  9
$HANDLING
 70
     1
  9
$HANDSEED
  5
D4
  9
$SURFTAB1
 70
     6
  9
$SURFTAB2
 70
     6
  9
$SURFTYPE
 70
     6
  9
$SURFU
 70
     6
  9
$SURFV
 70
     6
  9
$UCSNAME
  2

  9
$UCSORG
 10
0.0
 20
0.0
 30
0.0
  9
$UCSXDIR
 10
1.0
 20
0.0
 30
0.0
  9
$UCSYDIR
 10
0.0
 20
1.0
 30
0.0
  9
$PUCSNAME
  2

  9
$PUCSORG
 10
0.0
 20
0.0
 30
0.0
  9
$PUCSXDIR
 10
1.0
 20
0.0
 30
0.0
  9
$PUCSYDIR
 10
0.0
 20
1.0
 30
0.0
  9
$USERI1
 70
     0
  9
$USERI2
 70
     0
  9
$USERI3
 70
     0
  9
$USERI4
 70
     0
  9
$USERI5
 70
     0
  9
$USERR1
 40
0.0
  9
$USERR2
 40
0.0
  9
$USERR3
 40
0.0
  9
$USERR4
 40
0.0
  9
$USERR5
 40
0.0
  9
$WORLDVIEW
 70
     1
  9
$SHADEDGE
 70
     3
  9
$SHADEDIF
 70
    70
  9
$TILEMODE
 70
     1
  9
$MAXACTVP
 70
    64
  9
$PLIMCHECK
 70
     0
  9
$PEXTMIN
 10
1.000000000000000E+20
 20
1.000000000000000E+20
 30
1.000000000000000E+20
  9
$PEXTMAX
 10
-1.000000000000000E+20
 20
-1.000000000000000E+20
 30
-1.000000000000000E+20
  9
$PLIMMIN
 10
0.0
 20
0.0
  9
$PLIMMAX
 10
12.0
 20
9.0
  9
$UNITMODE
 70
     0
  9
$VISRETAIN
 70
     1
  9
$PLINEGEN
 70
     0
  9
$PSLTSCALE
 70
     1
  0
ENDSEC
  0
SECTION
  2
TABLES
  0
TABLE
  2
VPORT
 70
     1
  0
VPORT
  2
*ACTIVE
 70
     0
 10
0.0
 20
0.0
 11
1.0
 21
1.0
 12
-17.5
 22
-65.58363636363637
 13
0.0
 23
0.0
 14
0.5
 24
0.5
 15
0.5
 25
0.5
 16
0.0
 26
0.0
 36
1.0
 17
0.0
 27
0.0
 37
0.0
 40
264.0093818181818
 41
0.7809567556277837
 42
50.0
 43
0.0
 44
0.0
 50
0.0
 51
0.0
 71
     0
 72
   100
 73
     1
 74
     3
 75
     0
 76
     0
 77
     0
 78
     0
  0
ENDTAB
  0
TABLE
  2
LTYPE
 70
     2
  0
LTYPE
  2
CONTINUOUS
 70
     0
  3
Solid line
 72
    65
 73
     0
 40
0.0
  0
LTYPE
  2
CENTER
 70
     0
  3

 72
    65
 73
     4
 40
10.16
 49
6.35
 49
-1.27
 49
1.27
 49
-1.27
  0
ENDTAB
  0
TABLE
  2
LAYER
 70
     3
  0
LAYER
  2
0
 70
     0
 62
     7
  6
CONTINUOUS
  0
LAYER
  2
DEFAULT
 70
     0
 62
     7
  6
CONTINUOUS
  0
LAYER
  2
DEFPOINTS
 70
     0
 62
     7
  6
CONTINUOUS
  0
ENDTAB
  0
TABLE
  2
STYLE
 70
     2
  0
STYLE
  2
STANDARD
 70
     0
 40
0.0
 41
1.0
 50
0.0
 71
     0
 42
0.2
  3
txt
  4

  0
STYLE
  2
DEFAULT
 70
     0
 40
0.0
 41
1.0
 50
0.0
 71
     0
 42
0.2
  3

  4

  0
ENDTAB
  0
TABLE
  2
VIEW
 70
     0
  0
ENDTAB
  0
TABLE
  2
UCS
 70
     0
  0
ENDTAB
  0
TABLE
  2
APPID
 70
     1
  0
APPID
  2
ACAD
 70
     0
  0
ENDTAB
  0
TABLE
  2
DIMSTYLE
 70
     2
  0
DIMSTYLE
  2
STANDARD
 70
     0
  3

  4

  5

  6

  7

 40
1.0
 41
0.18
 42
0.0625
 43
0.38
 44
0.18
 45
0.0
 46
0.0
 47
0.0
 48
0.0
140
0.18
141
0.09
142
0.0
143
25.4
144
1.0
145
0.0
146
1.0
147
0.09
 71
     0
 72
     0
 73
     1
 74
     1
 75
     0
 76
     0
 77
     0
 78
     0
170
     0
171
     2
172
     0
173
     0
174
     0
175
     0
176
     0
177
     0
178
     0
  0
DIMSTYLE
  2
ISO-25
 70
     0
  3

  4

  5

  6

  7

 40
1.0
 41
2.5
 42
0.625
 43
0.38
 44
1.25
 45
0.0
 46
0.0
 47
0.0
 48
0.0
140
2.5
141
2.5
142
0.0
143
25.4
144
1.0
145
0.0
146
1.0
147
0.625
 71
     0
 72
     0
 73
     0
 74
     1
 75
     0
 76
     0
 77
     1
 78
     1
170
     0
171
     2
172
     1
173
     0
174
     1
175
     0
176
     0
177
     0
178
     0
  0
ENDTAB
  0
ENDSEC
  0
SECTION
  2
BLOCKS
  0
BLOCK
  8
0
  2
$MODEL_SPACE
 70
     0
 10
0.0
 20
0.0
 30
0.0
  3
$MODEL_SPACE
  1

  0
ENDBLK
  5
21
  8
0
  0
BLOCK
 67
     1
  8
0
  2
$PAPER_SPACE
 70
     0
 10
0.0
 20
0.0
 30
0.0
  3
$PAPER_SPACE
  1

  0
ENDBLK
  5
1D
 67
     1
  8
0
  0
BLOCK
  8
0
  2
*D1
 70
     1
 10
0.0
 20
0.0
 30
0.0
  3
*D1
  1

  0
LINE
  5
76
  8
DEFAULT
 62
     0
 10
62.0342917353
 20
50.625
 30
0.0
 11
62.0342917353
 21
61.25
 31
0.0
  0
LINE
  5
77
  8
DEFAULT
 62
     0
 10
83.5685834706
 20
50.625
 30
0.0
 11
83.5685834706
 21
61.25
 31
0.0
  0
LINE
  5
78
  8
DEFAULT
 62
     0
 10
64.5342917353
 20
60.0
 30
0.0
 11
81.0685834706
 21
60.0
 31
0.0
  0
SOLID
  5
79
  8
DEFAULT
 62
     0
 10
64.5342917353
 20
60.41666666666666
 30
0.0
 11
64.5342917353
 21
59.58333333333334
 31
0.0
 12
62.0342917353
 22
60.0
 32
0.0
 13
62.0342917353
 23
60.0
 33
0.0
  0
SOLID
  5
7A
  8
DEFAULT
 62
     0
 10
81.0685834706
 20
59.58333333333334
 30
0.0
 11
81.0685834706
 21
60.41666666666666
 31
0.0
 12
83.5685834706
 22
60.0
 32
0.0
 13
83.5685834706
 23
60.0
 33
0.0
  0
TEXT
  5
7B
  8
DEFAULT
  6
CONTINUOUS
 62
     0
 10
68.46393760295
 20
60.6725
 30
0.0
 40
2.5
  1
21.53
  7
DEFAULT
  0
POINT
  5
7C
  8
DEFPOINTS
 62
     0
 10
62.0342917353
 20
50.0
 30
0.0
  0
POINT
  5
7D
  8
DEFPOINTS
 62
     0
 10
83.5685834706
 20
50.0
 30
0.0
  0
POINT
  5
7E
  8
DEFPOINTS
 62
     0
 10
83.5685834706
 20
60.0
 30
0.0
  0
ENDBLK
  5
75
  8
0
  0
BLOCK
  8
0
  2
*D2
 70
     1
 10
0.0
 20
0.0
 30
0.0
  3
*D2
  1

  0
LINE
  5
83
  8
DEFAULT
 62
     0
 10
-118.5685834706
 20
50.625
 30
0.0
 11
-118.5685834706
 21
61.25
 31
0.0
  0
LINE
  5
84
  8
DEFAULT
 62
     0
 10
-97.0342917353
 20
50.625
 30
0.0
 11
-97.0342917353
 21
61.25
 31
0.0
  0
LINE
  5
85
  8
DEFAULT
 62
     0
 10
-116.0685834706
 20
60.0
 30
0.0
 11
-99.5342917353
 21
60.0
 31
0.0
  0
SOLID
  5
86
  8
DEFAULT
 62
     0
 10
-116.0685834706
 20
60.41666666666666
 30
0.0
 11
-116.0685834706
 21
59.58333333333334
 31
0.0
 12
-118.5685834706
 22
60.0
 32
0.0
 13
-118.5685834706
 23
60.0
 33
0.0
  0
SOLID
  5
87
  8
DEFAULT
 62
     0
 10
-99.5342917353
 20
59.58333333333334
 30
0.0
 11
-99.5342917353
 21
60.41666666666666
 31
0.0
 12
-97.0342917353
 22
60.0
 32
0.0
 13
-97.0342917353
 23
60.0
 33
0.0
  0
TEXT
  5
88
  8
DEFAULT
  6
CONTINUOUS
 62
     0
 10
-112.13893760295
 20
60.6725
 30
0.0
 40
2.5
  1
21.53
  7
DEFAULT
  0
POINT
  5
89
  8
DEFPOINTS
 62
     0
 10
-118.5685834706
 20
50.0
 30
0.0
  0
POINT
  5
8A
  8
DEFPOINTS
 62
     0
 10
-97.0342917353
 20
50.0
 30
0.0
  0
POINT
  5
8B
  8
DEFPOINTS
 62
     0
 10
-97.0342917353
 20
60.0
 30
0.0
  0
ENDBLK
  5
82
  8
0
  0
ENDSEC
  0
SECTION
  2
ENTITIES
  0
DIMENSION
  5
71
  8
DEFAULT
  2
*D1
 10
83.5685834706
 20
60.0
 30
0.0
 11
72.80143760295
 21
61.90125
 31
0.0
 70
    32
  1
<>
  3
ISO-25
 13
62.0342917353
 23
50.0
 33
0.0
 14
83.5685834706
 24
50.0
 34
0.0
  0
DIMENSION
  5
7F
  8
DEFAULT
  2
*D2
 10
-97.0342917353
 20
60.0
 30
0.0
 11
-107.80143760295
 21
61.90125
 31
0.0
 70
    32
  1
<>
  3
ISO-25
 13
-118.5685834706
 23
50.0
 33
0.0
 14
-97.0342917353
 24
50.0
 34
0.0
  0
TEXT
  5
8C
  8
DEFAULT
  6
CONTINUOUS
 10
68.83333333333333
 20
-84.55
 30
0.0
 40
5.0
  1
UP 90° R3
 50
90.0
  0
TEXT
  5
8D
  8
DEFAULT
  6
CONTINUOUS
 10
-98.16666666666667
 20
-84.55
 30
0.0
 40
5.0
  1
UP 90° R3
 50
90.0
  0
LINE
  5
8F
  8
0
  6
CENTER
 62
     7
 10
62.0342917353
 20
-195.0
 30
0.0
 11
62.0342917353
 21
50.0
 31
0.0
  0
LINE
  5
90
  8
0
  6
CENTER
 62
     7
 10
-97.0342917353
 20
50.0
 30
0.0
 11
-97.0342917353
 21
-195.0
 31
0.0
  0
ARC
  5
91
  8
0
  6
CONTINUOUS
 62
     7
 10
-13.7363845473
 20
-16.6046451203
 30
0.0
 40
0.4999999999999827
 50
50.40035345080008
 51
172.3107837699001
  0
ARC
  5
92
  8
0
  6
CONTINUOUS
 62
     7
 10
-13.7363845473
 20
16.6046451203
 30
0.0
 40
0.499999999999998
 50
187.6892162301
 51
309.5996465492001
  0
ARC
  5
93
  8
0
  6
CONTINUOUS
 62
     7
 10
-16.6046451203
 20
13.7363845473
 30
0.0
 40
0.4999999999999896
 50
320.4003534508003
 51
82.31078376990023
  0
ARC
  5
94
  8
0
  6
CONTINUOUS
 62
     7
 10
16.2634559673
 20
16.2634559673
 30
0.0
 40
2.050000000000002
 50
277.6892162300999
 51
172.3107837699
  0
ARC
  5
95
  8
0
  6
CONTINUOUS
 62
     7
 10
16.6046451203
 20
13.7363845473
 30
0.0
 40
0.5000000000000017
 50
97.6892162301
 51
219.5996465492
  0
ARC
  5
96
  8
0
  6
CONTINUOUS
 62
     7
 10
0.0
 20
0.0
 30
0.0
 40
21.04999999999999
 50
320.4003534508
 51
39.5996465492
  0
ARC
  5
97
  8
0
  6
CONTINUOUS
 62
     7
 10
16.6046451203
 20
-13.7363845473
 30
0.0
 40
0.499999999999983
 50
140.4003534507999
 51
262.3107837699001
  0
ARC
  5
98
  8
0
  6
CONTINUOUS
 62
     7
 10
16.2634559673
 20
-16.2634559673
 30
0.0
 40
2.049999999999998
 50
187.6892162301
 51
82.31078376990006
  0
ARC
  5
99
  8
0
  6
CONTINUOUS
 62
     7
 10
13.7363845473
 20
-16.6046451203
 30
0.0
 40
0.4999999999999939
 50
7.689216230100127
 51
129.5996465492002
  0
ARC
  5
9A
  8
0
  6
CONTINUOUS
 62
     7
 10
0.0
 20
0.0
 30
0.0
 40
21.05000000000001
 50
230.4003534508
 51
309.5996465491999
  0
ARC
  5
9B
  8
0
  6
CONTINUOUS
 62
     7
 10
-16.2634559673
 20
-16.2634559673
 30
0.0
 40
2.050000000000002
 50
97.68921623010004
 51
352.3107837699001
  0
ARC
  5
9C
  8
0
  6
CONTINUOUS
 62
     7
 10
-16.6046451203
 20
-13.7363845473
 30
0.0
 40
0.5000000000000027
 50
277.6892162301
 51
39.59964654920014
  0
ARC
  5
9D
  8
0
  6
CONTINUOUS
 62
     7
 10
0.0
 20
0.0
 30
0.0
 40
21.04999999999999
 50
140.4003534508
 51
219.5996465492
  0
ARC
  5
9E
  8
0
  6
CONTINUOUS
 62
     7
 10
-16.2634559673
 20
16.2634559673
 30
0.0
 40
2.050000000000001
 50
7.689216230100041
 51
262.3107837699001
  0
ARC
  5
9F
  8
0
  6
CONTINUOUS
 62
     7
 10
0.0
 20
0.0
 30
0.0
 40
21.05
 50
50.40035345079999
 51
129.5996465492
  0
ARC
  5
A0
  8
0
  6
CONTINUOUS
 62
     7
 10
13.7363845473
 20
16.6046451203
 30
0.0
 40
0.4999999999999835
 50
230.4003534507999
 51
352.3107837699001
  0
ARC
  5
A1
  8
0
  6
CONTINUOUS
 62
     7
 10
32.7859547921
 20
-183.5837366046
 30
0.0
 40
1.0
 50
64.09078279779936
 51
179.9999999999984
  0
ARC
  5
A2
  8
0
  6
CONTINUOUS
 62
     7
 10
36.5
 20
-175.9380928649
 30
0.0
 40
7.499999999999601
 50
244.0907827978
 51
263.2436729694001
  0
ARC
  5
A3
  8
0
  6
CONTINUOUS
 62
     7
 10
35.5
 20
-184.379064373
 30
0.0
 40
1.000000000000001
 50
0.0
 51
83.2436729693999
  0
ARC
  5
A4
  8
0
  6
CONTINUOUS
 62
     7
 10
-70.5
 20
-184.379064373
 30
0.0
 40
1.00000000000003
 50
96.75632703060032
 51
180.0
  0
ARC
  5
A5
  8
0
  6
CONTINUOUS
 62
     7
 10
-71.5
 20
-175.9380928649
 30
0.0
 40
7.500000000000334
 50
276.7563270305999
 51
295.9092172021998
  0
ARC
  5
A6
  8
0
  6
CONTINUOUS
 62
     7
 10
-67.7859547921
 20
-183.5837366046
 30
0.0
 40
0.9999999999999917
 50
0.0
 51
115.9092172021999
  0
ARC
  5
A7
  8
0
  6
CONTINUOUS
 62
     7
 10
-33.7634559673
 20
-138.2015488322
 30
0.0
 40
2.050000000000013
 50
97.68921623010006
 51
352.3107837698998
  0
ARC
  5
A8
  8
0
  6
CONTINUOUS
 62
     7
 10
-34.1046451203
 20
-135.6744774122
 30
0.0
 40
0.4999999999999942
 50
277.6892162301
 51
39.5996465491993
  0
ARC
  5
A9
  8
0
  6
CONTINUOUS
 62
     7
 10
-17.5
 20
-121.9380928649
 30
0.0
 40
21.05000000000004
 50
140.4003534508
 51
219.5996465492
  0
ARC
  5
AA
  8
0
  6
CONTINUOUS
 62
     7
 10
-34.1046451203
 20
-108.2017083176
 30
0.0
 40
0.5000000000000182
 50
320.4003534507992
 51
82.31078376989943
  0
ARC
  5
AB
  8
0
  6
CONTINUOUS
 62
     7
 10
-33.7634559673
 20
-105.6746368976
 30
0.0
 40
2.050000000000007
 50
7.689216230099817
 51
262.3107837699
  0
ARC
  5
AC
  8
0
  6
CONTINUOUS
 62
     7
 10
-31.2363845473
 20
-105.3334477447
 30
0.0
 40
0.4999999999999941
 50
187.6892162300993
 51
309.5996465491991
  0
ARC
  5
AD
  8
0
  6
CONTINUOUS
 62
     7
 10
-17.5
 20
-121.9380928649
 30
0.0
 40
21.05000000000003
 50
50.4003534508
 51
129.5996465492
  0
ARC
  5
AE
  8
0
  6
CONTINUOUS
 62
     7
 10
-3.7636154527
 20
-105.3334477447
 30
0.0
 40
0.5000000000000149
 50
230.4003534507991
 51
352.3107837698994
  0
ARC
  5
AF
  8
0
  6
CONTINUOUS
 62
     7
 10
-1.2365440327
 20
-105.6746368976
 30
0.0
 40
2.050000000000007
 50
277.6892162300999
 51
172.3107837699002
  0
ARC
  5
B0
  8
0
  6
CONTINUOUS
 62
     7
 10
-0.8953548797
 20
-108.2017083176
 30
0.0
 40
0.5000000000000209
 50
97.68921623010012
 51
219.5996465492005
  0
ARC
  5
B1
  8
0
  6
CONTINUOUS
 62
     7
 10
-17.5
 20
-121.9380928649
 30
0.0
 40
21.04999999999999
 50
320.4003534508
 51
39.5996465492
  0
ARC
  5
B2
  8
0
  6
CONTINUOUS
 62
     7
 10
-0.8953548797
 20
-135.6744774122
 30
0.0
 40
0.5000000000000582
 50
140.4003534509
 51
262.3107837699
  0
ARC
  5
B3
  8
0
  6
CONTINUOUS
 62
     7
 10
-1.2365440327
 20
-138.2015488322
 30
0.0
 40
2.050000000000016
 50
187.6892162301002
 51
82.3107837699002
  0
ARC
  5
B4
  8
0
  6
CONTINUOUS
 62
     7
 10
-3.7636154527
 20
-138.5427379852
 30
0.0
 40
0.4999999999999983
 50
7.689216230099229
 51
129.5996465491981
  0
ARC
  5
B5
  8
0
  6
CONTINUOUS
 62
     7
 10
-17.5
 20
-121.9380928649
 30
0.0
 40
21.04999999999988
 50
230.4003534508
 51
309.5996465492
  0
ARC
  5
B6
  8
0
  6
CONTINUOUS
 62
     7
 10
-31.2363845473
 20
-138.5427379852
 30
0.0
 40
0.5000000000000525
 50
50.40035345080089
 51
172.3107837699016
  0
LINE
  5
B7
  8
0
  6
CONTINUOUS
 62
     7
 10
-66.7859547921
 20
-195.0
 30
0.0
 11
-66.7859547921
 21
-183.5837366046
 31
0.0
  0
LINE
  5
B8
  8
0
  6
CONTINUOUS
 62
     7
 10
-66.7859547921
 20
-195.0
 30
0.0
 11
31.7859547921
 21
-195.0
 31
0.0
  0
LINE
  5
B9
  8
0
  6
CONTINUOUS
 62
     7
 10
31.7859547921
 20
-183.5837366046
 30
0.0
 11
31.7859547921
 21
-195.0
 31
0.0
  0
LINE
  5
BA
  8
0
  6
CONTINUOUS
 62
     7
 10
36.5
 20
-195.0
 30
0.0
 11
36.5
 21
-184.379064373
 31
0.0
  0
LINE
  5
BB
  8
0
  6
CONTINUOUS
 62
     7
 10
36.5
 20
-195.0
 30
0.0
 11
83.5685834706
 21
-195.0
 31
0.0
  0
LINE
  5
BC
  8
0
  6
CONTINUOUS
 62
     7
 10
83.5685834706
 20
-195.0
 30
0.0
 11
83.5685834706
 21
50.0
 31
0.0
  0
LINE
  5
BD
  8
0
  6
CONTINUOUS
 62
     7
 10
83.5685834706
 20
50.0
 30
0.0
 11
-118.5685834706
 21
50.0
 31
0.0
  0
LINE
  5
BE
  8
0
  6
CONTINUOUS
 62
     7
 10
-118.5685834706
 20
50.0
 30
0.0
 11
-118.5685834706
 21
-195.0
 31
0.0
  0
LINE
  5
BF
  8
0
  6
CONTINUOUS
 62
     7
 10
-118.5685834706
 20
-195.0
 30
0.0
 11
-71.5
 21
-195.0
 31
0.0
  0
LINE
  5
C0
  8
0
  6
CONTINUOUS
 62
     7
 10
-71.5
 20
-184.379064373
 30
0.0
 11
-71.5
 21
-195.0
 31
0.0
  0
CIRCLE
  5
C1
  8
0
  6
CONTINUOUS
 62
     7
 10
36.5
 20
-67.9380928649
 30
0.0
 40
4.049999999999997
  0
CIRCLE
  5
C2
  8
0
  6
CONTINUOUS
 62
     7
 10
36.5
 20
-175.9380928649
 30
0.0
 40
4.049999999999983
  0
CIRCLE
  5
C3
  8
0
  6
CONTINUOUS
 62
     7
 10
-71.5
 20
-175.9380928649
 30
0.0
 40
4.049999999999997
  0
CIRCLE
  5
C4
  8
0
  6
CONTINUOUS
 62
     7
 10
-71.5
 20
-67.9380928649
 30
0.0
 40
4.049999999999997
  0
CIRCLE
  5
C5
  8
0
  6
CONTINUOUS
 62
     7
 10
52.5619071351
 20
38.0619071351
 30
0.0
 40
4.200000000000003
  0
CIRCLE
  5
C6
  8
0
  6
CONTINUOUS
 62
     7
 10
-87.5619071351
 20
38.0619071351
 30
0.0
 40
4.200000000000003
  0
CIRCLE
  5
C7
  8
0
  6
CONTINUOUS
 62
     7
 10
-109.5685834706
 20
38.0619071351
 30
0.0
 40
2.09999999999998
  0
CIRCLE
  5
C8
  8
0
  6
CONTINUOUS
 62
     7
 10
-109.5685834706
 20
-68.9380928649
 30
0.0
 40
2.099999999999994
  0
CIRCLE
  5
C9
  8
0
  6
CONTINUOUS
 62
     7
 10
-109.5685834706
 20
-175.9380928649
 30
0.0
 40
2.099999999999952
  0
CIRCLE
  5
CA
  8
0
  6
CONTINUOUS
 62
     7
 10
74.5685834706
 20
38.0619071351
 30
0.0
 40
2.099999999999994
  0
CIRCLE
  5
CB
  8
0
  6
CONTINUOUS
 62
     7
 10
74.5685834706
 20
-68.9380928649
 30
0.0
 40
2.099999999999952
  0
CIRCLE
  5
CC
  8
0
  6
CONTINUOUS
 62
     7
 10
74.5685834706
 20
-175.9380928649
 30
0.0
 40
2.099999999999952
  0
ENDSEC
  0
EOF
